<?xml version="1.0" standalone="no"?>
<!DOCTYPE svg PUBLIC "-//W3C//DTD SVG 20010904//EN"
 "http://www.w3.org/TR/2001/REC-SVG-20010904/DTD/svg10.dtd">
<svg version="1.0" xmlns="http://www.w3.org/2000/svg"
 width="1089.000000pt" height="1146.000000pt" viewBox="0 0 1089.000000 1146.000000"
 preserveAspectRatio="xMidYMid meet">

<g transform="translate(0.000000,1146.000000) scale(0.100000,-0.100000)"
fill="#000000" stroke="none">
<path d="M4980 11276 c-3 -3 -96 -12 -206 -20 -111 -9 -214 -20 -230 -25 -16
-5 -60 -12 -99 -15 -38 -4 -99 -13 -135 -20 -36 -8 -90 -19 -120 -25 -187 -38
-415 -93 -455 -111 -11 -4 -60 -20 -110 -35 -49 -15 -99 -30 -110 -34 -82 -33
-132 -51 -138 -51 -5 0 -27 -8 -50 -18 -23 -10 -62 -26 -87 -36 -43 -17 -70
-29 -169 -72 -63 -27 -399 -196 -441 -222 -19 -12 -48 -28 -65 -37 -75 -39
-305 -188 -470 -305 -237 -168 -755 -640 -755 -688 0 -13 34 -42 51 -42 8 0
57 39 109 86 333 305 746 583 1180 797 236 116 421 192 682 281 153 52 179 60
393 115 305 78 629 130 974 156 136 11 645 8 781 -4 185 -17 385 -40 470 -56
320 -60 520 -107 715 -169 94 -30 252 -85 320 -111 59 -23 144 -58 172 -71 17
-8 34 -14 38 -14 17 0 438 -213 545 -275 165 -96 399 -253 534 -357 257 -199
646 -568 805 -763 237 -291 320 -407 486 -669 75 -121 229 -409 287 -541 166
-377 243 -607 337 -1005 111 -474 154 -1091 108 -1575 -70 -739 -249 -1373
-564 -2000 -59 -118 -191 -353 -233 -415 -10 -14 -50 -74 -90 -135 -260 -392
-610 -780 -975 -1079 -94 -78 -371 -281 -435 -320 -25 -15 -83 -52 -130 -81
-47 -30 -94 -59 -105 -64 -11 -5 -56 -30 -100 -56 -249 -148 -728 -353 -1025
-440 -25 -7 -79 -23 -120 -35 -177 -52 -437 -111 -580 -131 -36 -5 -87 -13
-115 -19 -164 -33 -376 -45 -770 -45 -403 0 -557 10 -845 56 -149 23 -519 105
-605 134 -22 7 -67 21 -100 31 -155 46 -407 135 -480 169 -16 8 -59 26 -95 40
-81 33 -396 189 -511 252 -301 167 -700 452 -949 678 -58 52 -110 95 -116 95
-15 0 -44 -34 -44 -51 0 -17 245 -261 386 -384 181 -159 412 -337 579 -446
278 -182 498 -302 815 -443 108 -48 372 -149 435 -166 17 -5 44 -13 60 -19 43
-15 146 -45 245 -72 47 -12 104 -28 128 -36 23 -7 56 -13 73 -13 16 0 46 -7
66 -15 19 -8 50 -15 67 -15 17 0 47 -4 66 -10 58 -15 357 -58 490 -70 69 -6
170 -15 225 -20 55 -5 190 -9 300 -9 192 0 260 4 535 29 169 15 558 76 635 99
17 5 48 12 70 16 22 4 60 12 85 20 25 7 74 21 110 30 861 229 1694 707 2365
1357 403 390 698 769 989 1270 54 93 236 450 236 463 0 3 12 32 26 63 14 31
30 66 35 77 75 168 192 522 254 765 7 30 21 84 30 120 9 36 21 90 25 120 5 30
15 87 23 125 17 85 41 251 63 440 21 180 30 674 15 855 -17 217 -40 440 -45
449 -3 4 -10 48 -16 97 -6 49 -17 118 -25 154 -8 36 -19 88 -25 115 -34 155
-51 228 -87 360 -23 86 -53 185 -69 225 -7 19 -17 51 -23 70 -18 65 -89 253
-127 337 -8 17 -14 33 -14 36 0 19 -162 349 -245 501 -70 126 -74 132 -178
301 -98 159 -287 417 -436 595 -125 151 -525 551 -671 671 -255 211 -364 291
-680 494 -158 102 -520 290 -725 376 -145 60 -229 94 -295 116 -41 14 -89 31
-107 39 -17 8 -39 14 -48 14 -9 0 -25 5 -36 11 -11 6 -44 17 -72 25 -169 48
-257 71 -362 94 -27 6 -75 18 -105 25 -95 23 -181 38 -445 74 -190 26 -339 35
-635 38 -174 3 -318 2 -320 -1z m630 -111 c135 -8 292 -22 350 -30 249 -37
444 -73 545 -100 28 -8 88 -24 135 -36 47 -12 132 -37 190 -55 58 -19 111 -34
118 -34 6 0 26 -7 44 -14 18 -8 74 -29 123 -47 80 -28 131 -48 243 -95 17 -8
47 -20 65 -28 177 -75 563 -281 782 -419 463 -291 943 -726 1308 -1186 109
-137 140 -180 260 -361 38 -58 77 -116 87 -130 52 -78 179 -308 253 -460 108
-223 147 -313 209 -480 190 -515 287 -956 339 -1540 62 -708 -37 -1479 -284
-2190 -56 -163 -66 -191 -81 -225 -8 -16 -25 -59 -39 -95 -14 -36 -37 -89 -52
-117 -14 -29 -25 -55 -25 -59 0 -13 -164 -330 -230 -444 -121 -208 -317 -496
-445 -655 -315 -391 -615 -685 -971 -952 -173 -130 -277 -202 -409 -284 -451
-280 -886 -471 -1410 -620 -127 -36 -486 -114 -575 -125 -19 -3 -80 -11 -135
-19 -130 -19 -419 -43 -615 -51 -201 -8 -616 17 -845 51 -55 8 -116 16 -135
19 -69 8 -284 51 -445 89 -299 70 -698 214 -990 355 -33 16 -86 41 -117 56
-61 29 -81 46 -25 22 17 -8 66 -28 107 -45 41 -18 84 -36 95 -41 11 -5 52 -21
90 -35 39 -14 79 -29 90 -34 42 -19 317 -107 425 -136 36 -9 85 -23 110 -30
25 -7 71 -18 103 -24 32 -6 63 -13 68 -17 5 -3 45 -12 87 -19 544 -94 614
-100 1092 -100 316 0 425 4 545 18 443 52 740 117 1135 247 96 32 186 63 200
68 233 92 350 144 550 245 96 48 179 92 185 96 5 4 35 22 65 38 112 61 222
131 430 274 169 116 403 314 609 514 331 323 554 597 797 975 16 25 34 54 40
65 7 11 42 72 79 135 70 122 211 401 268 535 54 126 108 267 166 435 71 205
166 591 201 820 43 277 49 344 71 702 10 174 7 253 -21 658 -5 80 -17 188 -25
240 -27 163 -56 322 -70 385 -8 33 -17 76 -20 95 -4 19 -13 58 -20 85 -8 28
-24 86 -36 130 -51 190 -158 488 -248 693 -73 167 -237 480 -309 594 -9 14
-30 48 -46 75 -239 398 -640 862 -1076 1245 -138 121 -446 353 -548 413 -9 6
-37 24 -62 40 -52 34 -47 31 -184 113 -124 74 -314 172 -446 231 -52 23 -102
46 -111 51 -8 4 -47 20 -85 35 -38 14 -78 31 -89 36 -33 14 -184 69 -265 95
-159 52 -177 57 -230 71 -303 78 -344 87 -680 144 -330 56 -934 73 -1245 34
-66 -8 -141 -15 -167 -15 -26 0 -80 -6 -120 -14 -40 -8 -104 -20 -143 -25
-123 -19 -235 -40 -244 -46 -6 -3 -43 -12 -83 -19 -40 -8 -109 -24 -153 -36
-44 -12 -98 -26 -120 -31 -22 -5 -49 -13 -60 -18 -11 -5 -105 -37 -210 -71
-104 -34 -194 -66 -199 -71 -6 -5 -16 -9 -24 -9 -8 0 -28 -6 -45 -14 -73 -33
-177 -75 -177 -71 0 19 547 247 720 300 25 8 77 24 115 36 374 114 773 187
1180 213 275 18 430 18 715 1z"/>
<path d="M4910 10614 c-248 -17 -474 -37 -502 -44 -18 -6 -49 -10 -68 -10 -38
0 -224 -33 -305 -55 -27 -7 -68 -16 -90 -20 -91 -15 -436 -120 -592 -180 -187
-72 -244 -98 -438 -194 -634 -313 -1169 -748 -1676 -1363 -216 -262 -471 -685
-627 -1038 -193 -438 -301 -822 -377 -1340 -47 -323 -47 -968 0 -1268 40 -255
64 -374 107 -547 32 -127 152 -491 198 -600 23 -55 47 -113 53 -129 7 -16 48
-104 93 -195 370 -756 950 -1427 1654 -1913 104 -72 288 -188 297 -188 4 0 14
-6 22 -14 17 -16 400 -211 466 -238 22 -9 74 -31 115 -48 79 -34 104 -43 295
-107 127 -43 295 -91 410 -118 138 -32 315 -65 347 -65 18 0 49 -4 68 -10 75
-20 473 -50 672 -50 190 0 533 25 683 49 272 44 362 63 550 113 61 16 126 34
145 38 147 38 465 162 685 269 478 232 865 506 1265 898 l145 141 -24 26 c-14
14 -29 26 -34 26 -5 0 -46 -33 -91 -73 -364 -325 -867 -646 -1281 -816 -44
-18 -93 -39 -110 -46 -131 -59 -458 -164 -650 -209 -60 -15 -126 -31 -145 -36
-35 -9 -154 -30 -330 -56 -52 -8 -183 -21 -290 -29 -844 -63 -1669 98 -2438
477 -1082 532 -1861 1423 -2262 2583 -249 723 -320 1520 -200 2263 35 218 106
516 135 572 8 14 26 66 41 115 15 50 30 95 34 100 4 6 10 23 14 40 4 16 16 48
27 72 10 23 19 46 19 52 0 5 6 22 14 38 32 63 55 120 62 148 3 17 38 93 77
170 169 340 343 604 597 905 461 547 1068 989 1736 1263 118 48 402 147 499
173 303 81 536 124 835 156 167 17 754 17 915 0 483 -53 934 -164 1355 -335
88 -36 327 -145 345 -157 6 -4 57 -32 115 -62 97 -52 158 -86 284 -163 162
-99 402 -280 589 -443 l109 -95 26 27 27 26 -170 168 c-189 187 -266 253 -506
432 -375 281 -791 498 -1264 660 -165 56 -354 112 -425 125 -19 3 -62 12 -95
20 -69 16 -254 49 -365 65 -181 26 -641 52 -770 44z m452 -114 c84 -6 187 -15
228 -21 41 -5 109 -14 150 -19 131 -15 412 -77 621 -135 127 -35 434 -147 519
-188 58 -29 48 -27 -35 5 -50 19 -161 56 -245 82 -135 43 -410 110 -514 126
-28 4 -78 13 -111 19 -172 30 -301 43 -505 52 -234 11 -637 4 -775 -12 -134
-15 -285 -37 -334 -48 -25 -6 -71 -14 -101 -20 -160 -28 -299 -65 -530 -139
-176 -57 -270 -92 -395 -148 -16 -7 -52 -23 -80 -34 -57 -25 -211 -102 -300
-150 -385 -208 -765 -497 -1104 -840 -126 -128 -364 -396 -400 -450 -9 -14
-43 -61 -77 -105 -139 -184 -291 -434 -406 -670 -38 -77 -73 -148 -78 -157 -5
-9 -32 -75 -60 -145 -28 -70 -55 -137 -60 -148 -11 -24 -81 -238 -103 -315
-29 -100 -55 -203 -77 -310 -12 -58 -26 -123 -30 -145 -5 -22 -21 -130 -36
-240 -25 -188 -27 -222 -27 -575 0 -225 5 -409 12 -460 6 -47 18 -137 26 -200
15 -118 20 -144 61 -338 112 -519 338 -1081 599 -1487 18 -27 54 -84 81 -125
181 -282 508 -659 774 -894 249 -220 382 -319 690 -518 147 -94 590 -315 720
-358 14 -5 50 -18 80 -30 118 -46 292 -101 495 -155 139 -37 402 -89 510 -100
32 -4 62 -8 66 -11 20 -12 358 -28 594 -28 237 0 563 15 583 28 4 2 50 9 102
15 52 6 127 18 165 26 285 59 276 57 450 106 65 18 181 55 350 113 58 20 -51
-31 -129 -60 -355 -134 -693 -218 -1086 -271 -231 -30 -728 -43 -966 -24 -304
25 -600 74 -845 142 -63 17 -136 37 -164 44 -46 13 -260 87 -381 133 -91 34
-285 124 -424 195 -867 446 -1586 1167 -2031 2037 -269 524 -420 1021 -501
1645 -19 149 -22 217 -22 545 0 351 2 388 27 575 107 796 346 1445 765 2085
364 555 864 1034 1462 1402 215 132 529 289 765 381 485 188 915 283 1465 320
113 8 433 6 572 -3z m1578 -9120 c-8 -5 -19 -10 -25 -10 -5 0 -3 5 5 10 8 5
20 10 25 10 6 0 3 -5 -5 -10z"/>
</g>
</svg>
