<svg width="236" height="172" viewBox="0 0 236 172" fill="none" xmlns="http://www.w3.org/2000/svg">
<g clip-path="url(#clip0_289_51)">
<path d="M99.1857 34.8678C99.1857 34.8678 103.786 32.7317 105.209 33.6438C105.66 33.9323 105.656 34.0921 106.443 35.3862C106.753 35.8969 107.725 36.8909 108.799 35.8423C109.045 35.6045 109.402 35.0159 110.006 35.1874L110.366 34.9107C110.366 34.9107 110.409 34.8951 110.425 34.9107C110.445 34.9224 110.452 34.9457 110.444 34.9652L110.292 35.4447C110.292 35.4447 110.35 36.2165 109.888 37.0702C109.888 37.0702 110.413 37.8771 112.67 37.3274C113.337 37.1637 113.909 37.2066 116.26 42.3637C116.26 42.3637 114.814 42.4728 113.129 39.8767C112.78 39.3388 111.702 40.0599 110.535 40.1535C109.629 40.2237 108.912 39.8261 108.015 40.1886C107.729 40.3055 107.368 40.6875 107.349 40.9799C107.309 41.5217 107.2 42.3637 107.2 42.3637C106.957 42.7769 105.04 42.2584 104.954 41.4243C104.954 41.4243 106.49 40.2665 106.49 39.4674C106.49 39.4674 105.291 38.6684 104.621 37.8147C104.022 37.0507 104.127 35.7215 103.065 35.6591C101.776 35.585 99.7892 36.0294 99.1779 34.8678H99.1857Z" fill="#F4FAFF"/>
<path d="M118.482 19.4589C118.482 19.4589 128.765 18.0361 130.987 20.6712C131.692 21.5054 131.587 21.8172 132.347 24.8109C132.645 25.992 133.938 28.5179 136.669 27.1107C137.292 26.7911 138.347 25.8556 139.424 26.5494L140.298 26.222C140.341 26.2064 140.388 26.222 140.416 26.2532C140.443 26.2882 140.443 26.3389 140.416 26.374L139.828 27.2199C139.828 27.2199 139.475 28.7596 138.061 30.159C138.061 30.159 138.597 32.0495 143.347 32.3263C144.75 32.4081 145.839 32.833 147.317 44.3166C147.317 44.3166 144.429 43.6695 142.704 37.5847C142.348 36.3256 139.808 37.0897 137.473 36.5712C135.658 36.1697 134.502 34.9613 132.531 35.1367C131.9 35.1913 130.967 35.7253 130.748 36.2867C130.34 37.3235 129.623 38.8983 129.623 38.8983C128.894 39.561 125.469 37.4015 125.806 35.7214C125.806 35.7214 129.514 34.3766 129.996 32.8135C129.996 32.8135 128.134 30.5293 127.343 28.4633C126.637 26.6157 127.64 24.0742 125.606 23.3219C123.134 22.4058 118.98 22.0823 118.486 19.4472L118.482 19.4589Z" fill="#F4FAFF"/>
<mask id="mask0_289_51" style="mask-type:luminance" maskUnits="userSpaceOnUse" x="77" y="9" width="84" height="84">
<path d="M119.14 92.6559C142.162 92.6559 160.825 74.0922 160.825 51.1927C160.825 28.2932 142.162 9.72946 119.14 9.72946C96.1187 9.72946 77.4558 28.2932 77.4558 51.1927C77.4558 74.0922 96.1187 92.6559 119.14 92.6559Z" fill="white"/>
</mask>
<g mask="url(#mask0_289_51)">
<path d="M184.405 101.461H0V43.9969H0.642689C5.99582 43.9969 8.68022 46.7021 11.2706 49.3216C13.7904 51.8631 16.1691 54.2643 20.9893 54.2643C25.8094 54.2643 28.1843 51.8631 30.7041 49.3216C33.2983 46.7021 35.9788 43.9969 41.3319 43.9969C46.6851 43.9969 49.3695 46.7021 51.9598 49.3216C54.4796 51.8631 56.8584 54.2643 61.6746 54.2643C66.4909 54.2643 68.8735 51.8631 71.3933 49.3216C73.9876 46.706 76.6681 43.9969 82.0212 43.9969C87.3743 43.9969 90.0587 46.7021 92.653 49.3216C95.1728 51.8631 97.5515 54.2643 102.372 54.2643C107.192 54.2643 109.571 51.8631 112.09 49.3216C114.685 46.7021 117.365 43.9969 122.722 43.9969C128.079 43.9969 130.76 46.7021 133.354 49.3216C135.874 51.8631 138.253 54.2643 143.073 54.2643C147.893 54.2643 150.272 51.8631 152.791 49.3216C155.386 46.7021 158.066 43.9969 163.423 43.9969C168.78 43.9969 171.461 46.7021 174.055 49.3216C176.575 51.8631 178.954 54.2643 183.774 54.2643H184.416V101.461H184.405ZM1.28146 100.187H183.123V55.5273C178.189 55.3207 175.619 52.7285 173.134 50.2143C170.614 47.6727 168.236 45.2716 163.415 45.2716C158.595 45.2716 156.216 47.6727 153.697 50.2143C151.102 52.8298 148.422 55.5389 143.065 55.5389C137.708 55.5389 135.027 52.8337 132.433 50.2143C129.913 47.6727 127.535 45.2716 122.714 45.2716C117.894 45.2716 115.515 47.6727 112.996 50.2143C110.401 52.8337 107.721 55.5389 102.364 55.5389C97.0068 55.5389 94.3263 52.8337 91.736 50.2143C89.2162 47.6727 86.8374 45.2716 82.0173 45.2716C77.1971 45.2716 74.8184 47.6727 72.3025 50.2143C69.7082 52.8337 67.0277 55.5389 61.6707 55.5389C56.3136 55.5389 53.6371 52.8337 51.0428 50.2143C48.523 47.6727 46.1443 45.2716 41.328 45.2716C36.5118 45.2716 34.133 47.6727 31.6132 50.2143C29.019 52.8337 26.3385 55.5389 20.9854 55.5389C15.6322 55.5389 12.9478 52.8337 10.3536 50.2143C7.94739 47.7858 5.67055 45.4899 1.27754 45.2833V100.183L1.28146 100.187Z" fill="#F4FAFF"/>
<path d="M109.657 60.1152L108.901 59.0861C110.06 58.2481 111.044 57.2541 112.087 56.2016C114.681 53.586 117.361 50.8769 122.718 50.8769C128.075 50.8769 130.756 53.5821 133.35 56.2016C134.275 57.1332 135.231 58.0999 136.285 58.899L135.505 59.9125C134.381 59.0589 133.393 58.061 132.437 57.0982C129.917 54.5566 127.538 52.1555 122.718 52.1555C117.898 52.1555 115.519 54.5566 113 57.0982C111.969 58.1389 110.899 59.2187 109.657 60.1191V60.1152Z" fill="#F4FAFF"/>
<path d="M184.405 117.33H0V50.873H0.642689C5.99582 50.873 8.68022 53.5782 11.2706 56.1977C13.7904 58.7392 16.1691 61.1404 20.9893 61.1404C25.8094 61.1404 28.1843 58.7392 30.7041 56.1977C33.2983 53.5821 35.9788 50.873 41.3319 50.873C46.6851 50.873 49.3695 53.5782 51.9598 56.1977C54.4796 58.7392 56.8584 61.1404 61.6746 61.1404C66.4909 61.1404 68.8735 58.7392 71.3933 56.1977C73.9876 53.5821 76.6681 50.873 82.0212 50.873C87.3743 50.873 90.0587 53.5782 92.653 56.1977C93.5778 57.1293 94.534 58.096 95.5882 58.8951L94.8083 59.9086C93.6836 59.0511 92.6961 58.0571 91.7399 57.0904C89.2201 54.5489 86.8414 52.1477 82.0212 52.1477C77.201 52.1477 74.8223 54.5489 72.3064 57.0904C69.7121 59.7059 67.0317 62.415 61.6746 62.415C56.3176 62.415 53.641 59.7098 51.0467 57.0904C48.5269 54.5489 46.1482 52.1477 41.3319 52.1477C36.5157 52.1477 34.137 54.5489 31.6172 57.0904C29.0229 59.7059 26.3424 62.415 20.9893 62.415C15.6361 62.415 12.9517 59.7098 10.3575 57.0904C7.95131 54.6619 5.67447 52.366 1.28146 52.1594V116.052H183.123V62.4034C178.189 62.1968 175.619 59.6046 173.134 57.0943C170.614 54.5527 168.236 52.1516 163.415 52.1516C158.595 52.1516 156.216 54.5527 153.697 57.0943C152.666 58.135 151.596 59.2148 150.354 60.1152L149.601 59.0861C150.761 58.2481 151.745 57.2541 152.787 56.2016C155.382 53.586 158.062 50.8769 163.419 50.8769C168.776 50.8769 171.457 53.5821 174.051 56.2016C176.571 58.7431 178.95 61.1443 183.77 61.1443H184.412V117.33H184.405Z" fill="#F4FAFF"/>
<path d="M132.433 62.8049C129.913 60.2633 127.534 57.8622 122.714 57.8622C117.894 57.8622 115.515 60.2633 112.996 62.8049L112.083 61.9083C114.677 59.2927 117.357 56.5836 122.714 56.5836C128.071 56.5836 130.752 59.2888 133.346 61.9083L132.433 62.801V62.8049Z" fill="#F4FAFF"/>
<path d="M184.405 97.2555H0V56.5875H0.642689C5.99582 56.5875 8.68022 59.2927 11.2706 61.9122C13.7904 64.4537 16.1691 66.8549 20.9893 66.8549C25.8094 66.8549 28.1843 64.4537 30.7041 61.9122C33.2983 59.2927 35.9788 56.5875 41.3319 56.5875C46.6851 56.5875 49.3695 59.2927 51.9598 61.9122C54.4796 64.4537 56.8584 66.8549 61.6746 66.8549C66.4909 66.8549 68.8735 64.4537 71.3933 61.9122C73.9876 59.2927 76.6681 56.5875 82.0212 56.5875C87.3743 56.5875 90.0587 59.2927 92.653 61.9122L91.7399 62.8049C89.2201 60.2633 86.8414 57.8622 82.0212 57.8622C77.201 57.8622 74.8223 60.2633 72.3064 62.8049C69.7121 65.4243 67.0317 68.1295 61.6746 68.1295C56.3176 68.1295 53.641 65.4243 51.0467 62.8049C48.5269 60.2633 46.1482 57.8622 41.3319 57.8622C36.5157 57.8622 34.137 60.2633 31.6172 62.8049C29.0229 65.4243 26.3424 68.1295 20.9893 68.1295C15.6361 68.1295 12.9517 65.4243 10.3575 62.8049C7.95131 60.3764 5.67447 58.0805 1.28146 57.8739V95.977H183.123V68.114C178.189 67.9074 175.619 65.3152 173.134 62.801C170.614 60.2594 168.236 57.8583 163.415 57.8583C158.595 57.8583 156.216 60.2594 153.697 62.801L152.784 61.9083C155.378 59.2888 158.058 56.5836 163.415 56.5836C168.772 56.5836 171.453 59.2888 174.047 61.9083C176.567 64.4498 178.946 66.851 183.766 66.851H184.409V97.2516L184.405 97.2555Z" fill="#F4FAFF"/>
<path d="M115.935 65.8141L115.155 64.8006C117.408 63.0894 119.81 62.2942 122.718 62.2942C125.626 62.2942 127.836 63.027 130.007 64.5979L129.255 65.627C127.315 64.2198 125.238 63.5649 122.722 63.5649C120.077 63.5649 117.984 64.2588 115.939 65.8102L115.935 65.8141Z" fill="#F4FAFF"/>
<path d="M184.405 99.9413H0V62.2903H0.642689C5.99582 62.2903 8.68022 64.9956 11.2706 67.615C13.7904 70.1565 16.1691 72.5577 20.9893 72.5577C25.8094 72.5577 28.1843 70.1565 30.7041 67.615C33.2983 64.9995 35.9788 62.2903 41.3319 62.2903C46.6851 62.2903 49.3695 64.9956 51.9598 67.615C54.4796 70.1565 56.8584 72.5577 61.6746 72.5577C66.4909 72.5577 68.8735 70.1565 71.3933 67.615C73.9876 64.9995 76.6681 62.2903 82.0212 62.2903C84.8232 62.2903 87.1392 63.0232 89.3102 64.5941L88.5539 65.6231C86.6141 64.216 84.5371 63.5611 82.0212 63.5611C77.201 63.5611 74.8223 65.9623 72.3064 68.5038C69.7121 71.1193 67.0317 73.8285 61.6746 73.8285C56.3176 73.8285 53.641 71.1232 51.0467 68.5038C48.5269 65.9623 46.1482 63.5611 41.3319 63.5611C36.5157 63.5611 34.137 65.9623 31.6172 68.5038C29.0229 71.1193 26.3424 73.8285 20.9893 73.8285C15.6361 73.8285 12.9517 71.1232 10.3575 68.5038C7.95131 66.0753 5.67447 63.7794 1.28146 63.5728V98.6588H183.123V73.8129C178.189 73.6063 175.619 71.0141 173.134 68.5038C170.614 65.9623 168.236 63.5611 163.415 63.5611C160.766 63.5611 158.674 64.2549 156.632 65.8063L155.852 64.7929C158.105 63.0816 160.508 62.2825 163.415 62.2825C168.772 62.2825 171.453 64.9878 174.047 67.6072C176.567 70.1487 178.946 72.5499 183.766 72.5499H184.409V99.9335L184.405 99.9413Z" fill="#F4FAFF"/>
<path d="M204.493 102.452H20.084V56.5836H20.7267C26.0798 56.5836 28.7642 59.2888 31.3585 61.9083C33.8783 64.4498 36.257 66.851 41.0772 66.851C45.8973 66.851 48.2722 64.4498 50.792 61.9083C53.3862 59.2888 56.0667 56.5836 61.4198 56.5836C66.773 56.5836 69.4535 59.2888 72.0477 61.9083C74.5675 64.4498 76.9463 66.851 81.7625 66.851C86.5788 66.851 88.9614 64.4498 91.4812 61.9083C94.0755 59.2888 96.756 56.5836 102.109 56.5836C107.462 56.5836 110.147 59.2888 112.741 61.9083C115.261 64.4498 117.639 66.851 122.46 66.851C127.28 66.851 129.659 64.4498 132.178 61.9083C134.773 59.2888 137.453 56.5836 142.81 56.5836C148.167 56.5836 150.848 59.2888 153.442 61.9083C155.962 64.4498 158.34 66.851 163.161 66.851C167.981 66.851 170.359 64.4498 172.879 61.9083C175.474 59.2888 178.154 56.5836 183.511 56.5836C188.868 56.5836 191.549 59.2888 194.143 61.9083C196.663 64.4498 199.041 66.851 203.862 66.851H204.504V102.452H204.493ZM21.3654 101.177H203.207V68.114C198.273 67.9074 195.703 65.3152 193.218 62.801C190.698 60.2594 188.32 57.8583 183.499 57.8583C178.679 57.8583 176.3 60.2594 173.781 62.801C171.186 65.4165 168.506 68.1256 163.149 68.1256C157.792 68.1256 155.111 65.4204 152.517 62.801C149.997 60.2594 147.619 57.8583 142.798 57.8583C137.978 57.8583 135.599 60.2594 133.08 62.801C130.485 65.4204 127.805 68.1256 122.448 68.1256C117.091 68.1256 114.41 65.4204 111.82 62.801C109.3 60.2594 106.921 57.8583 102.101 57.8583C97.2811 57.8583 94.9024 60.2594 92.3865 62.801C89.7922 65.4204 87.1117 68.1256 81.7547 68.1256C76.3976 68.1256 73.7211 65.4204 71.1268 62.801C68.607 60.2594 66.2283 57.8583 61.412 57.8583C56.5958 57.8583 54.217 60.2594 51.6972 62.801C49.1029 65.4204 46.4225 68.1256 41.0693 68.1256C35.7162 68.1256 33.0318 65.4204 30.4375 62.801C28.0314 60.3725 25.7545 58.0766 21.3615 57.87V101.173L21.3654 101.177Z" fill="#F4FAFF"/>
<path d="M204.493 102.093H20.084V62.2903H20.7267C26.0798 62.2903 28.7642 64.9955 31.3546 67.615C33.8744 70.1565 36.2531 72.5577 41.0733 72.5577C45.8934 72.5577 48.2682 70.1565 50.788 67.615C53.3823 64.9994 56.0628 62.2903 61.4159 62.2903C66.7691 62.2903 69.4495 64.9955 72.0438 67.615C74.5636 70.1565 76.9423 72.5577 81.7586 72.5577C86.5748 72.5577 88.9575 70.1565 91.4773 67.615C94.0716 64.9994 96.752 62.2903 102.105 62.2903C107.458 62.2903 110.143 64.9955 112.737 67.615C115.257 70.1565 117.636 72.5577 122.456 72.5577C127.276 72.5577 129.655 70.1565 132.174 67.615C134.769 64.9994 137.449 62.2903 142.806 62.2903C148.163 62.2903 150.844 64.9955 153.438 67.615C155.958 70.1565 158.337 72.5577 163.157 72.5577C167.977 72.5577 170.356 70.1565 172.875 67.615C175.47 64.9994 178.15 62.2903 183.507 62.2903C188.864 62.2903 191.545 64.9955 194.139 67.615C196.659 70.1565 199.038 72.5577 203.858 72.5577H204.5V102.089L204.493 102.093ZM21.3654 100.818H203.207V73.8206C198.273 73.6141 195.703 71.0219 193.218 68.5115C190.698 65.97 188.32 63.5689 183.499 63.5689C178.679 63.5689 176.3 65.97 173.781 68.5115C171.186 71.1271 168.506 73.8362 163.149 73.8362C157.792 73.8362 155.111 71.131 152.517 68.5115C149.997 65.97 147.619 63.5689 142.798 63.5689C137.978 63.5689 135.599 65.97 133.08 68.5115C130.485 71.1271 127.805 73.8362 122.448 73.8362C117.091 73.8362 114.41 71.131 111.82 68.5115C109.3 65.97 106.921 63.5689 102.101 63.5689C97.2811 63.5689 94.9024 65.97 92.3865 68.5115C89.7922 71.1271 87.1117 73.8362 81.7547 73.8362C76.3976 73.8362 73.7211 71.131 71.1268 68.5115C68.607 65.97 66.2283 63.5689 61.412 63.5689C56.5958 63.5689 54.217 65.97 51.6972 68.5115C49.1029 71.1271 46.4225 73.8362 41.0693 73.8362C35.7162 73.8362 33.0318 71.131 30.4375 68.5115C28.0314 66.0831 25.7545 63.7872 21.3615 63.5806V100.818H21.3654Z" fill="#F4FAFF"/>
<path d="M204.493 95.747H20.084V68.0009H20.7267C26.0798 68.0009 28.7642 70.7061 31.3585 73.3256C33.8783 75.8671 36.257 78.2683 41.0772 78.2683C45.8973 78.2683 48.2722 75.8671 50.792 73.3256C53.3862 70.7061 56.0667 68.0009 61.4198 68.0009C66.773 68.0009 69.4535 70.7061 72.0477 73.3256C74.5675 75.8671 76.9463 78.2683 81.7625 78.2683C86.5788 78.2683 88.9614 75.8671 91.4812 73.3256C94.0755 70.71 96.756 68.0009 102.109 68.0009C107.462 68.0009 110.147 70.7061 112.741 73.3256C115.261 75.8671 117.639 78.2683 122.46 78.2683C127.28 78.2683 129.659 75.8671 132.178 73.3256C134.773 70.7061 137.453 68.0009 142.81 68.0009C148.167 68.0009 150.848 70.7061 153.442 73.3256C155.962 75.8671 158.34 78.2683 163.161 78.2683C167.981 78.2683 170.359 75.8671 172.879 73.3256C175.474 70.7061 178.154 68.0009 183.511 68.0009C188.868 68.0009 191.549 70.7061 194.143 73.3256C196.663 75.8671 199.041 78.2683 203.862 78.2683H204.504V95.747H204.493ZM21.3654 94.4724H203.207V79.5313C198.273 79.3247 195.703 76.7325 193.218 74.2183C190.698 71.6767 188.32 69.2756 183.499 69.2756C178.679 69.2756 176.3 71.6767 173.781 74.2183C171.186 76.8338 168.506 79.5429 163.149 79.5429C157.792 79.5429 155.111 76.8377 152.517 74.2183C149.997 71.6767 147.619 69.2756 142.798 69.2756C137.978 69.2756 135.599 71.6767 133.08 74.2183C130.485 76.8377 127.805 79.5429 122.448 79.5429C117.091 79.5429 114.41 76.8377 111.82 74.2183C109.3 71.6767 106.921 69.2756 102.101 69.2756C97.2811 69.2756 94.9024 71.6767 92.3865 74.2183C89.7922 76.8377 87.1117 79.5429 81.7547 79.5429C76.3976 79.5429 73.7211 76.8377 71.1268 74.2183C68.607 71.6767 66.2283 69.2756 61.412 69.2756C56.5958 69.2756 54.217 71.6767 51.6972 74.2183C49.1029 76.8377 46.4225 79.5429 41.0693 79.5429C35.7162 79.5429 33.0318 76.8377 30.4375 74.2183C28.0314 71.7898 25.7545 69.4939 21.3615 69.2873V94.4685L21.3654 94.4724Z" fill="#F4FAFF"/>
</g>
<path d="M77.6282 171.844V161.978H79.5327V171.844H77.6282ZM79.039 171.844V170.285H81.6332C82.0839 170.285 82.4405 170.145 82.6991 169.864C82.9578 169.583 83.0871 169.252 83.0871 168.866C83.0871 168.605 83.0322 168.367 82.9186 168.157C82.805 167.946 82.6364 167.775 82.4091 167.646C82.1819 167.513 81.9154 167.451 81.6058 167.451H79.039V165.907H81.3942C81.7978 165.907 82.1192 165.81 82.3543 165.611C82.5894 165.416 82.707 165.12 82.707 164.726C82.707 164.333 82.5855 164.025 82.3465 163.83C82.1074 163.635 81.7939 163.534 81.4099 163.534H79.039V161.974H81.6489C82.2994 161.974 82.8441 162.095 83.287 162.333C83.7298 162.571 84.0668 162.886 84.2941 163.272C84.5253 163.662 84.639 164.083 84.639 164.543C84.639 165.104 84.4665 165.588 84.1256 165.997C83.7807 166.402 83.2752 166.71 82.609 166.917L82.6952 166.286C83.4398 166.492 84.012 166.831 84.4156 167.303C84.8192 167.775 85.023 168.344 85.023 169.006C85.023 169.529 84.8898 170.004 84.6272 170.429C84.3646 170.854 83.9845 171.197 83.4908 171.454C82.997 171.712 82.4013 171.84 81.7077 171.84H79.0429L79.039 171.844Z" fill="#F4FAFF"/>
<path d="M86.5278 171.844V161.978H88.4481V171.844H86.5278ZM87.9386 163.666V161.982H93.3544V163.666H87.9386ZM87.9386 167.634V165.993H92.9469V167.634H87.9386ZM87.9386 171.844V170.16H93.425V171.844H87.9386Z" fill="#F4FAFF"/>
<path d="M95.0239 171.844V161.978H96.3798L100.401 168.379H99.6246L103.63 161.978H104.986V171.844H103.065V165.264L103.446 165.362L100.667 169.825H99.3425L96.5758 165.362L96.9442 165.264V171.844H95.0239Z" fill="#F4FAFF"/>
<path d="M106.267 171.844L110.272 161.978H111.851L115.817 171.844H113.772L110.695 163.76H111.401L108.297 171.844H106.267ZM108.395 170.008V168.41H113.728V170.008H108.395Z" fill="#F4FAFF"/>
<path d="M116.989 171.844V161.978H118.329L118.909 163.9V171.844H116.989ZM123.843 171.844L117.961 164.282L118.329 161.982L124.227 169.544L123.847 171.844H123.843ZM123.843 171.844L123.294 169.993V161.978H125.215V171.844H123.847H123.843Z" fill="#F4FAFF"/>
<path d="M127.245 171.844V161.978H128.585L129.165 163.9V171.844H127.245ZM134.102 171.844L128.22 164.282L128.589 161.982L134.487 169.544L134.106 171.844H134.102ZM134.102 171.844L133.554 169.993V161.978H135.474V171.844H134.106H134.102Z" fill="#F4FAFF"/>
<path d="M137.5 171.844V161.978H139.42V171.844H137.5Z" fill="#F4FAFF"/>
<path d="M141.45 171.844V161.978H142.791L143.371 163.9V171.844H141.45ZM148.308 171.844L142.426 164.282L142.794 161.982L148.692 169.544L148.312 171.844H148.308ZM148.308 171.844L147.76 169.993V161.978H149.68V171.844H148.312H148.308Z" fill="#F4FAFF"/>
<path d="M156.279 172C155.582 172 154.927 171.867 154.312 171.606C153.697 171.345 153.156 170.979 152.689 170.511C152.223 170.043 151.859 169.501 151.596 168.882C151.334 168.266 151.2 167.599 151.2 166.89C151.2 166.18 151.334 165.518 151.604 164.906C151.87 164.294 152.243 163.756 152.713 163.292C153.183 162.828 153.732 162.469 154.363 162.22C154.994 161.967 155.676 161.842 156.408 161.842C157.227 161.842 157.976 161.99 158.658 162.29C159.34 162.59 159.912 163.015 160.37 163.569L159.058 164.874C158.756 164.461 158.376 164.149 157.913 163.935C157.451 163.721 156.945 163.612 156.389 163.612C155.758 163.612 155.201 163.748 154.716 164.025C154.23 164.301 153.853 164.687 153.579 165.182C153.305 165.677 153.171 166.25 153.171 166.894C153.171 167.537 153.309 168.137 153.579 168.632C153.853 169.127 154.222 169.513 154.688 169.79C155.154 170.067 155.68 170.203 156.26 170.203C156.89 170.203 157.427 170.09 157.866 169.868C158.309 169.642 158.646 169.31 158.881 168.866C159.116 168.422 159.234 167.876 159.234 167.233L160.488 168.102L156.142 168.059V166.375H161.205V166.656C161.205 167.833 160.993 168.823 160.57 169.618C160.147 170.414 159.563 171.01 158.822 171.408C158.078 171.805 157.227 172.004 156.267 172.004L156.279 172Z" fill="#F4FAFF"/>
<path d="M57.6578 138.594C57.6578 138.805 57.8185 138.972 58.1359 139.101C58.4534 139.225 58.7825 139.292 59.1235 139.292V140.492H47.9979V139.292C48.3349 139.292 48.6641 139.229 48.9855 139.101C49.3029 138.972 49.4636 138.805 49.4636 138.594V102.354L30.8334 142.894L12.266 102.229V138.594C12.266 138.805 12.4267 138.972 12.7441 139.101C13.0615 139.225 13.3907 139.292 13.7316 139.292V140.492H2.53552V139.292C2.87254 139.292 3.20172 139.229 3.51915 139.101C3.83658 138.972 3.99725 138.805 3.99725 138.594V94.9557C3.99725 94.7452 3.83658 94.5776 3.51915 94.449C3.20172 94.3242 2.89214 94.258 2.59822 94.258V93.0574H19.0025V94.258C18.493 94.258 18.1638 94.3749 18.0149 94.6049C17.866 94.8388 17.8542 95.0999 17.9836 95.3962L30.8922 125.247L43.9889 95.3962C44.0752 95.1428 43.9458 94.8894 43.6088 94.6361C43.2679 94.3827 42.8447 94.258 42.3391 94.258V93.0574H59.0608V94.258C58.763 94.258 58.4573 94.3203 58.1399 94.449C57.8224 94.5737 57.6618 94.7452 57.6618 94.9557V138.594H57.6578Z" fill="#F4FAFF"/>
<path d="M99.6208 112.602C99.3229 112.602 99.0173 112.664 98.6998 112.793C98.3824 112.918 98.2217 113.089 98.2217 113.3V138.598C98.2217 138.808 98.3824 138.976 98.6998 139.105C99.0173 139.229 99.3229 139.296 99.6208 139.296V140.496H90.2116V137.019C87.5429 139.888 84.1727 141.319 80.101 141.319C77.0052 141.319 74.2816 140.695 71.9303 139.452C69.579 138.208 67.7567 136.427 66.4635 134.107C65.1703 131.788 64.5237 129.091 64.5237 126.011C64.5237 122.932 65.233 120.351 66.6555 118.012C68.0741 115.674 69.9709 113.861 72.3457 112.575C74.7205 111.288 77.303 110.645 80.101 110.645C84.1688 110.645 87.539 112.204 90.2116 115.327V111.405H99.6208V112.606V112.602ZM85.7285 133.437C87.104 132.657 88.1778 131.624 88.938 130.338C89.7022 129.052 90.0823 127.672 90.0823 126.194C90.0823 123.665 89.2437 121.579 87.5703 119.934C85.897 118.289 83.7221 117.467 81.0533 117.467C78.3846 117.467 76.339 118.27 74.6617 119.872C72.9884 121.474 72.1497 123.52 72.1497 126.007C72.1497 128.623 73.008 130.708 74.7244 132.268C76.4409 133.827 78.5492 134.606 81.0494 134.606C82.7855 134.606 84.3451 134.217 85.7207 133.437H85.7285Z" fill="#F4FAFF"/>
<path d="M125.054 109.499V119.681H123.847C123.847 119.388 123.784 119.049 123.655 118.667C123.526 118.285 123.357 118.079 123.145 118.036H122.699C121.386 118.036 120.061 118.406 118.725 119.143C117.389 119.88 116.288 120.85 115.418 122.051C114.548 123.251 114.113 124.53 114.113 125.879V138.59C114.113 138.801 114.273 138.968 114.591 139.097C114.908 139.222 115.214 139.288 115.512 139.288V140.488H104.829V139.288C105.127 139.288 105.432 139.225 105.75 139.097C106.067 138.968 106.228 138.801 106.228 138.59V113.292C106.228 113.081 106.067 112.914 105.75 112.785C105.432 112.657 105.123 112.594 104.829 112.594V111.394H114.113V114.114C115.257 113.062 116.632 112.216 118.247 111.585C119.858 110.953 121.468 110.637 123.079 110.637H123.204C123.416 110.637 123.577 110.513 123.682 110.259C123.788 110.006 123.839 109.753 123.839 109.499H125.046H125.054Z" fill="#F4FAFF"/>
<path d="M130.744 112.789C130.427 112.664 130.117 112.598 129.823 112.598V111.398H140.761V112.598C140.463 112.598 140.157 112.661 139.84 112.789C139.522 112.918 139.362 113.085 139.362 113.296V138.594C139.362 138.804 139.522 138.972 139.84 139.101C140.157 139.225 140.463 139.292 140.761 139.292V140.492H129.823V139.292C130.121 139.292 130.427 139.229 130.744 139.101C131.061 138.972 131.222 138.804 131.222 138.594V113.296C131.222 113.085 131.061 112.918 130.744 112.789ZM131.888 104.693C130.936 103.765 130.458 102.608 130.458 101.216C130.458 99.9101 130.936 98.7797 131.888 97.8324C132.841 96.8852 133.997 96.4097 135.353 96.4097C136.709 96.4097 137.853 96.8852 138.785 97.8324C139.718 98.7797 140.185 99.9101 140.185 101.216C140.185 102.608 139.718 103.765 138.785 104.693C137.853 105.621 136.709 106.085 135.353 106.085C133.997 106.085 132.841 105.621 131.888 104.693Z" fill="#F4FAFF"/>
<path d="M164.536 110.135V119.747H163.329C163.329 119.455 163.267 119.166 163.137 118.893C163.012 118.621 162.839 118.484 162.628 118.484H158.493V138.594C158.493 138.804 158.642 138.972 158.94 139.101C159.238 139.225 159.532 139.292 159.83 139.292V140.492H149.464V139.292C149.758 139.292 150.056 139.229 150.354 139.101C150.648 138.972 150.801 138.804 150.801 138.594V118.484H147.748C147.536 118.484 147.368 118.621 147.239 118.893C147.113 119.17 147.046 119.455 147.046 119.747H145.839V110.135H147.046C147.046 110.431 147.109 110.715 147.239 110.988C147.364 111.265 147.532 111.398 147.748 111.398H150.801V103.999C150.801 103.789 150.652 103.621 150.354 103.492C150.056 103.364 149.758 103.301 149.464 103.301V102.101H159.83V103.301C159.532 103.301 159.234 103.364 158.94 103.492C158.642 103.617 158.493 103.789 158.493 103.999V111.398H162.628C162.839 111.398 163.008 111.261 163.137 110.988C163.267 110.715 163.329 110.431 163.329 110.135H164.536Z" fill="#F4FAFF"/>
<path d="M170.544 112.789C170.226 112.664 169.917 112.598 169.623 112.598V111.398H180.56V112.598C180.262 112.598 179.957 112.661 179.639 112.789C179.322 112.918 179.161 113.085 179.161 113.296V138.594C179.161 138.804 179.322 138.972 179.639 139.101C179.957 139.225 180.262 139.292 180.56 139.292V140.492H169.623V139.292C169.921 139.292 170.226 139.229 170.544 139.101C170.861 138.972 171.022 138.804 171.022 138.594V113.296C171.022 113.085 170.861 112.918 170.544 112.789ZM171.688 104.693C170.736 103.765 170.258 102.608 170.258 101.216C170.258 99.9101 170.736 98.7797 171.688 97.8324C172.64 96.8852 173.796 96.4097 175.152 96.4097C176.508 96.4097 177.652 96.8852 178.585 97.8324C179.518 98.7797 179.984 99.9101 179.984 101.216C179.984 102.608 179.518 103.765 178.585 104.693C177.652 105.621 176.508 106.085 175.152 106.085C173.796 106.085 172.64 105.621 171.688 104.693Z" fill="#F4FAFF"/>
<path d="M234.538 138.594C234.538 138.805 234.699 138.972 235.016 139.101C235.334 139.226 235.663 139.292 236.004 139.292V140.492H224.812V139.292C225.149 139.292 225.478 139.229 225.795 139.101C226.113 138.972 226.273 138.805 226.273 138.594V125.438C226.273 120.211 224.533 117.595 221.061 117.595C219.365 117.595 218.052 118.289 217.119 119.681C216.186 121.072 215.72 123.158 215.72 125.941V138.59C215.72 138.801 215.881 138.968 216.198 139.097C216.516 139.222 216.845 139.288 217.186 139.288V140.488H206.06V139.288C206.401 139.288 206.726 139.225 207.044 139.097C207.361 138.968 207.522 138.801 207.522 138.59V125.434C207.522 123.115 207.161 121.228 206.44 119.774C205.719 118.32 204.383 117.592 202.435 117.592C200.911 117.592 199.692 118.149 198.779 119.268C197.866 120.386 197.325 122.063 197.157 124.296V138.59C197.157 138.801 197.325 138.968 197.666 139.097C198.003 139.222 198.324 139.288 198.618 139.288V140.488H187.301V139.288C187.598 139.288 187.916 139.225 188.253 139.097C188.594 138.968 188.762 138.801 188.762 138.59V113.292C188.762 113.082 188.602 112.914 188.284 112.785C187.967 112.661 187.657 112.594 187.363 112.594V111.394H197.157V113.101C198.853 111.542 201.013 110.762 203.642 110.762C206.017 110.762 208.063 111.214 209.779 112.123C211.496 113.031 212.84 114.282 213.815 115.884C214.58 114.325 215.755 113.081 217.342 112.154C218.933 111.226 220.72 110.762 222.715 110.762C226.701 110.762 229.667 111.943 231.615 114.302C233.562 116.664 234.538 119.72 234.538 123.474V138.59V138.594Z" fill="#F4FAFF"/>
</g>
<defs>
<clipPath id="clip0_289_51">
<rect width="236" height="172" fill="white"/>
</clipPath>
</defs>
</svg>
