<svg width="272" height="195" viewBox="0 0 272 195" fill="none" xmlns="http://www.w3.org/2000/svg">
<path d="M115.783 41.6963C115.783 41.6963 120.44 39.5189 121.869 40.4455C122.33 40.7234 122.33 40.9088 123.114 42.206C123.437 42.7156 124.405 43.7348 125.465 42.6693C125.696 42.4376 126.065 41.8353 126.664 42.0207L127.033 41.7427H127.079C127.079 41.7427 127.125 41.789 127.079 41.789L126.941 42.2986C126.941 42.2986 126.987 43.0862 126.526 43.9665C126.526 43.9665 127.033 44.8004 129.338 44.2445C130.03 44.0591 130.583 44.1055 132.934 49.387C132.934 49.387 131.459 49.4797 129.799 46.8389C129.43 46.2829 128.37 47.0242 127.171 47.1169C126.249 47.2095 125.558 46.7926 124.635 47.1632C124.359 47.3022 123.99 47.6728 123.944 47.9508C123.898 48.5068 123.806 49.3407 123.806 49.3407C123.575 49.7576 121.639 49.248 121.546 48.3678C121.546 48.3678 123.114 47.2095 123.114 46.3756C123.114 46.3756 121.915 45.5417 121.224 44.7078C120.624 43.9202 120.717 42.5766 119.656 42.5303C118.411 42.4376 116.383 42.8546 115.783 41.6963Z" fill="white"/>
<path d="M135.193 25.9907C135.193 25.9907 145.567 24.5545 147.78 27.2416C148.471 28.0755 148.379 28.3998 149.163 31.4576C149.486 32.6621 150.777 35.2102 153.497 33.8204C154.142 33.4961 155.203 32.5232 156.263 33.2644L157.139 32.9401C157.185 32.9401 157.231 32.9401 157.277 32.9864C157.323 33.0328 157.323 33.0791 157.277 33.1254L156.678 34.0057C156.678 34.0057 156.309 35.5809 154.88 37.0171C154.88 37.0171 155.433 38.9629 160.182 39.2409C161.611 39.3336 162.671 39.7505 164.193 51.4255C164.193 51.4255 161.288 50.7769 159.536 44.5688C159.168 43.2715 156.632 44.0591 154.28 43.5495C152.436 43.1326 151.284 41.928 149.301 42.067C148.656 42.1133 147.734 42.6693 147.503 43.2252C147.088 44.2908 146.351 45.866 146.351 45.866C145.613 46.5609 142.155 44.3371 142.524 42.6229C142.524 42.6229 146.258 41.2331 146.765 39.6579C146.765 39.6579 144.875 37.3414 144.091 35.2566C143.4 33.3571 144.414 30.809 142.339 30.0214C139.896 29.0021 135.701 28.6778 135.193 25.9907Z" fill="white"/>
<mask id="mask0_430_11" style="mask-type:luminance" maskUnits="userSpaceOnUse" x="93" y="16" width="85" height="85">
<path d="M135.885 100.488C159.081 100.488 177.886 81.592 177.886 58.2823C177.886 34.9725 159.081 16.0763 135.885 16.0763C112.688 16.0763 93.884 34.9725 93.884 58.2823C93.884 81.592 112.688 100.488 135.885 100.488Z" fill="white"/>
</mask>
<g mask="url(#mask0_430_11)">
<path d="M198.31 109.43H12.6024V50.9622H13.2479C18.6421 50.9622 21.3622 53.6956 23.944 56.3827C26.4798 58.9772 28.8772 61.4326 33.7181 61.4326C38.559 61.4326 40.9564 58.9772 43.4922 56.3827C46.1201 53.742 48.7941 50.9622 54.1883 50.9622C59.5825 50.9622 62.3027 53.6956 64.8845 56.3827C67.4202 58.9772 69.8176 61.4326 74.6586 61.4326C79.4995 61.4326 81.8969 58.9772 84.4326 56.3827C87.0606 53.742 89.7346 50.9622 95.1288 50.9622C100.523 50.9622 103.243 53.6956 105.825 56.3827C108.361 58.9772 110.758 61.4326 115.599 61.4326C120.44 61.4326 122.837 58.9772 125.373 56.3827C128.001 53.742 130.675 50.9622 136.069 50.9622C141.463 50.9622 144.184 53.6956 146.765 56.3827C149.301 58.9772 151.699 61.4326 156.539 61.4326C161.38 61.4326 163.778 58.9772 166.314 56.3827C168.941 53.742 171.616 50.9622 177.01 50.9622C182.404 50.9622 185.124 53.6956 187.706 56.3827C190.242 58.9772 192.639 61.4326 197.48 61.4326H198.125V109.43H198.31ZM13.8933 108.133H197.019V62.6835C192.04 62.4519 189.458 59.8574 186.968 57.263C184.432 54.6686 182.035 52.2131 177.194 52.2131C172.353 52.2131 169.956 54.6686 167.42 57.263C164.792 59.9038 162.118 62.6835 156.724 62.6835C151.33 62.6835 148.61 59.9501 146.028 57.263C143.492 54.6686 141.095 52.2131 136.254 52.2131C131.413 52.2131 129.015 54.6686 126.48 57.263C123.852 59.9038 121.178 62.6835 115.783 62.6835C110.389 62.6835 107.669 59.9501 105.087 57.263C102.552 54.6686 100.154 52.2131 95.3132 52.2131C90.4723 52.2131 88.0749 54.6686 85.5391 57.263C82.9112 59.9038 80.2372 62.6835 74.843 62.6835C69.4488 62.6835 66.7287 59.9501 64.1468 57.263C61.6111 54.6686 59.2137 52.2131 54.3727 52.2131C49.5318 52.2131 47.1344 54.6686 44.5987 57.263C41.9707 59.9038 39.2967 62.6835 33.9025 62.6835C28.5083 62.6835 25.7882 59.9501 23.2064 57.263C20.7628 54.8075 18.5037 52.4448 14.0777 52.2594V108.133H13.8933Z" fill="white"/>
<path d="M123.022 67.3628L122.284 66.2972C123.437 65.4633 124.451 64.444 125.511 63.3785C128.139 60.7377 130.813 57.9579 136.208 57.9579C141.602 57.9579 144.322 60.6914 146.904 63.3785C147.826 64.3051 148.794 65.3243 149.854 66.1119L149.071 67.1311C147.918 66.2509 146.95 65.2316 145.982 64.2587C143.446 61.6643 141.048 59.2088 136.208 59.2088C131.367 59.2088 128.969 61.6643 126.433 64.2587C125.373 65.3706 124.267 66.4362 123.022 67.3628Z" fill="white"/>
<path d="M198.31 125.599H12.6024V57.9579H13.2479C18.6421 57.9579 21.3622 60.6914 23.944 63.3785C26.4798 65.9729 28.8772 68.4284 33.7181 68.4284C38.559 68.4284 40.9564 65.9729 43.4922 63.3785C46.1201 60.7377 48.7941 57.9579 54.1883 57.9579C59.5825 57.9579 62.3027 60.6914 64.8845 63.3785C67.4202 65.9729 69.8176 68.4284 74.6586 68.4284C79.4995 68.4284 81.8969 65.9729 84.4326 63.3785C87.0606 60.7377 89.7346 57.9579 95.1288 57.9579C100.523 57.9579 103.243 60.6914 105.825 63.3785C106.747 64.3051 107.715 65.3243 108.776 66.1119L107.992 67.1311C106.839 66.2509 105.871 65.2316 104.903 64.2587C102.367 61.6643 99.9697 59.2088 95.1288 59.2088C90.2879 59.2088 87.8904 61.6643 85.3547 64.2587C82.7268 66.8995 80.0527 69.6793 74.6586 69.6793C69.2644 69.6793 66.5442 66.9458 63.9624 64.2587C61.4267 61.6643 59.0293 59.2088 54.1883 59.2088C49.3474 59.2088 46.95 61.6643 44.4143 64.2587C41.7863 66.8995 39.1123 69.6793 33.7181 69.6793C28.3239 69.6793 25.6038 66.9458 23.0219 64.2587C20.5784 61.8033 18.3193 59.4405 13.8933 59.2552V124.255H197.019V69.7256C192.04 69.4939 189.458 66.8995 186.968 64.3051C184.432 61.7106 182.035 59.2552 177.194 59.2552C172.353 59.2552 169.956 61.7106 167.42 64.3051C166.36 65.3706 165.299 66.4825 164.054 67.3628L163.317 66.2972C164.469 65.4633 165.484 64.4441 166.544 63.3785C169.172 60.7377 171.846 57.9579 177.24 57.9579C182.634 57.9579 185.355 60.6914 187.936 63.3785C190.472 65.9729 192.87 68.4284 197.71 68.4284H198.356V125.599H198.31Z" fill="white"/>
<path d="M145.982 70.0962C143.446 67.5018 141.048 65.0463 136.208 65.0463C131.367 65.0463 128.969 67.5018 126.433 70.0962L125.511 69.1696C128.139 66.5289 130.813 63.7491 136.208 63.7491C141.602 63.7491 144.322 66.4825 146.904 69.1696L145.982 70.0962Z" fill="white"/>
<path d="M198.31 105.168H12.6024V63.7954H13.2479C18.6421 63.7954 21.3622 66.5289 23.944 69.216C26.4798 71.8104 28.8772 74.2659 33.7181 74.2659C38.559 74.2659 40.9564 71.8104 43.4922 69.216C46.1201 66.5752 48.7941 63.7954 54.1883 63.7954C59.5825 63.7954 62.3027 66.5289 64.8845 69.216C67.4202 71.8104 69.8176 74.2659 74.6586 74.2659C79.4995 74.2659 81.8969 71.8104 84.4326 69.216C87.0606 66.5752 89.7346 63.7954 95.1288 63.7954C100.523 63.7954 103.243 66.5289 105.825 69.216L104.903 70.1426C102.367 67.5481 99.9697 65.0927 95.1288 65.0927C90.2879 65.0927 87.8904 67.5481 85.3547 70.1426C82.7268 72.7833 80.0527 75.5631 74.6586 75.5631C69.2644 75.5631 66.5442 72.8297 63.9624 70.1426C61.4267 67.5481 59.0293 65.0927 54.1883 65.0927C49.3474 65.0927 46.95 67.5481 44.4143 70.1426C41.8324 72.7833 39.1123 75.5168 33.7181 75.5168C28.3239 75.5168 25.6038 72.7833 23.0219 70.0962C20.5784 67.6408 18.3193 65.278 13.8933 65.0927V103.87H197.019V75.5168C192.04 75.2851 189.458 72.6907 186.968 70.0962C184.432 67.5018 182.035 65.0463 177.194 65.0463C172.353 65.0463 169.956 67.5018 167.42 70.0962L166.498 69.1696C169.126 66.5289 171.8 63.7491 177.194 63.7491C182.588 63.7491 185.308 66.4825 187.89 69.1696C190.426 71.7641 192.823 74.2195 197.664 74.2195H198.31V105.168Z" fill="white"/>
<path d="M129.338 73.154L128.554 72.1347C130.813 70.3742 133.257 69.5866 136.162 69.5866C138.974 69.5866 141.325 70.3279 143.492 71.9494L142.754 73.015C140.818 71.5788 138.697 70.9302 136.162 70.9302C133.534 70.8838 131.413 71.5788 129.338 73.154Z" fill="white"/>
<path d="M198.31 107.901H12.6024V69.5866H13.2479C18.6421 69.5866 21.3622 72.32 23.944 75.0071C26.4798 77.6016 28.8772 80.057 33.7181 80.057C38.559 80.057 40.9564 77.6016 43.4922 75.0071C46.1201 72.3664 48.7941 69.5866 54.1883 69.5866C59.5825 69.5866 62.3027 72.32 64.8845 75.0071C67.4202 77.6016 69.8176 80.057 74.6586 80.057C79.4995 80.057 81.8969 77.6016 84.4326 75.0071C87.0606 72.3664 89.7346 69.5866 95.1288 69.5866C97.9411 69.5866 100.292 70.3279 102.459 71.9494L101.722 73.015C99.7853 71.5788 97.6645 70.9302 95.1288 70.9302C90.2879 70.9302 87.8904 73.3856 85.3547 75.9801C82.7268 78.6208 80.0527 81.4006 74.6586 81.4006C69.2644 81.4006 66.5442 78.6672 63.9624 75.9801C61.4267 73.3856 59.0293 70.9302 54.1883 70.9302C49.3474 70.9302 46.95 73.3856 44.4143 75.9801C41.7863 78.6208 39.1123 81.4006 33.7181 81.4006C28.3239 81.4006 25.6038 78.6672 23.0219 75.9801C20.5784 73.5246 18.3193 71.1618 13.8933 70.9765V106.696H197.019V81.4006C192.04 81.1689 189.458 78.5745 186.968 75.9801C184.432 73.3856 182.035 70.9302 177.194 70.9302C174.52 70.9302 172.399 71.6251 170.371 73.2003L169.587 72.1811C171.846 70.4205 174.29 69.6329 177.194 69.6329C182.588 69.6329 185.308 72.3664 187.89 75.0535C190.426 77.6479 192.823 80.1034 197.664 80.1034H198.31V107.901Z" fill="white"/>
<path d="M218.55 110.449H32.8422V63.7954H33.4876C38.8818 63.7954 41.6019 66.5289 44.1838 69.216C46.7195 71.8104 49.1169 74.2659 53.9578 74.2659C58.7988 74.2659 61.1962 71.8104 63.7319 69.216C66.3599 66.5752 69.0339 63.7954 74.4281 63.7954C79.8223 63.7954 82.5424 66.5289 85.1242 69.216C87.66 71.8104 90.0574 74.2659 94.8983 74.2659C99.7392 74.2659 102.137 71.8104 104.672 69.216C107.3 66.5752 109.974 63.7954 115.369 63.7954C120.763 63.7954 123.483 66.5289 126.065 69.216C128.6 71.8104 130.998 74.2659 135.839 74.2659C140.68 74.2659 143.077 71.8104 145.613 69.216C148.241 66.5752 150.915 63.7954 156.309 63.7954C161.703 63.7954 164.423 66.5289 167.005 69.216C169.541 71.8104 171.938 74.2659 176.779 74.2659C181.62 74.2659 184.018 71.8104 186.553 69.216C189.181 66.5752 191.855 63.7954 197.249 63.7954C202.644 63.7954 205.364 66.5289 207.946 69.216C210.481 71.8104 212.879 74.2659 217.72 74.2659H218.365V110.449H218.55ZM34.1331 109.152H217.259V75.5168C212.279 75.2851 209.698 72.6907 207.208 70.0962C204.672 67.5018 202.275 65.0463 197.434 65.0463C192.593 65.0463 190.196 67.5018 187.66 70.0962C185.032 72.737 182.358 75.5168 176.964 75.5168C171.569 75.5168 168.849 72.7833 166.267 70.0962C163.732 67.5018 161.334 65.0463 156.493 65.0463C151.652 65.0463 149.255 67.5018 146.719 70.0962C144.091 72.737 141.417 75.5168 136.023 75.5168C130.629 75.5168 127.909 72.7833 125.327 70.0962C122.791 67.5018 120.394 65.0463 115.553 65.0463C110.712 65.0463 108.315 67.5018 105.779 70.0962C103.151 72.737 100.477 75.5168 95.0827 75.5168C89.6885 75.5168 86.9684 72.7833 84.3866 70.0962C81.8508 67.5018 79.4534 65.0463 74.6125 65.0463C69.7716 65.0463 67.3741 67.5018 64.8384 70.0962C62.2105 72.737 59.5364 75.5168 54.1423 75.5168C48.7481 75.5168 46.0279 72.7833 43.4461 70.0962C41.0026 67.6408 38.7435 65.278 34.3175 65.0927V109.152H34.1331Z" fill="white"/>
<path d="M218.55 110.078H32.8422V69.5866H33.4876C38.8818 69.5866 41.6019 72.32 44.1838 75.0071C46.7195 77.6016 49.1169 80.057 53.9578 80.057C58.7988 80.057 61.1962 77.6016 63.7319 75.0071C66.3599 72.3664 69.0339 69.5866 74.4281 69.5866C79.8223 69.5866 82.5424 72.32 85.1242 75.0071C87.66 77.6016 90.0574 80.057 94.8983 80.057C99.7392 80.057 102.137 77.6016 104.672 75.0071C107.3 72.3664 109.974 69.5866 115.369 69.5866C120.763 69.5866 123.483 72.32 126.065 75.0071C128.6 77.6016 130.998 80.057 135.839 80.057C140.68 80.057 143.077 77.6016 145.613 75.0071C148.241 72.3664 150.915 69.5866 156.309 69.5866C161.703 69.5866 164.423 72.32 167.005 75.0071C169.541 77.6016 171.938 80.057 176.779 80.057C181.62 80.057 184.018 77.6016 186.553 75.0071C189.181 72.3664 191.855 69.5866 197.249 69.5866C202.644 69.5866 205.364 72.32 207.946 75.0071C210.481 77.6016 212.879 80.057 217.72 80.057H218.365V110.078H218.55ZM34.1331 108.781H217.259V81.3079C212.279 81.0763 209.698 78.4818 207.208 75.8874C204.672 73.293 202.275 70.8375 197.434 70.8375C192.593 70.8375 190.196 73.293 187.66 75.8874C185.032 78.5282 182.358 81.3079 176.964 81.3079C171.569 81.3079 168.849 78.5745 166.267 75.8874C163.732 73.293 161.334 70.8375 156.493 70.8375C151.652 70.8375 149.255 73.293 146.719 75.8874C144.091 78.5282 141.417 81.3079 136.023 81.3079C130.629 81.3079 127.909 78.5745 125.327 75.8874C122.791 73.293 120.394 70.8375 115.553 70.8375C110.712 70.8375 108.315 73.293 105.779 75.8874C103.151 78.5282 100.477 81.3079 95.0827 81.3079C89.6885 81.3079 86.9684 78.5745 84.3866 75.8874C81.8508 73.293 79.4534 70.8375 74.6125 70.8375C69.7716 70.8375 67.3741 73.293 64.8384 75.8874C62.2105 78.5282 59.5364 81.3079 54.1423 81.3079C48.7481 81.3079 46.0279 78.5745 43.4461 75.8874C41.0026 73.4319 38.7435 71.0691 34.3175 70.8838V108.781H34.1331Z" fill="white"/>
<path d="M218.55 103.639H32.8422V75.4241H33.4876C38.8818 75.4241 41.6019 78.1575 44.1838 80.8446C46.7195 83.4391 49.1169 85.8945 53.9578 85.8945C58.7988 85.8945 61.1962 83.4391 63.7319 80.8446C66.3599 78.2039 69.0339 75.4241 74.4281 75.4241C79.8223 75.4241 82.5424 78.1575 85.1242 80.8446C87.66 83.4391 90.0574 85.8945 94.8983 85.8945C99.7392 85.8945 102.137 83.4391 104.672 80.8446C107.3 78.2039 109.974 75.4241 115.369 75.4241C120.763 75.4241 123.483 78.1575 126.065 80.8446C128.6 83.4391 130.998 85.8945 135.839 85.8945C140.68 85.8945 143.077 83.4391 145.613 80.8446C148.241 78.2039 150.915 75.4241 156.309 75.4241C161.703 75.4241 164.423 78.1575 167.005 80.8446C169.541 83.4391 171.938 85.8945 176.779 85.8945C181.62 85.8945 184.018 83.4391 186.553 80.8446C189.181 78.2039 191.855 75.4241 197.249 75.4241C202.644 75.4241 205.364 78.1575 207.946 80.8446C210.481 83.4391 212.879 85.8945 217.72 85.8945H218.365V103.639H218.55ZM34.1331 102.341H217.259V87.1454C212.279 86.9138 209.698 84.3193 207.208 81.7249C204.672 79.1304 202.275 76.675 197.434 76.675C192.593 76.675 190.196 79.1304 187.66 81.7249C185.032 84.3657 182.358 87.1454 176.964 87.1454C171.569 87.1454 168.849 84.412 166.267 81.7249C163.732 79.1304 161.334 76.675 156.493 76.675C151.652 76.675 149.255 79.1304 146.719 81.7249C144.091 84.3657 141.417 87.1454 136.023 87.1454C130.629 87.1454 127.909 84.412 125.327 81.7249C122.791 79.1304 120.394 76.675 115.553 76.675C110.712 76.675 108.315 79.1304 105.779 81.7249C103.151 84.3657 100.477 87.1454 95.0827 87.1454C89.6885 87.1454 86.9684 84.412 84.3866 81.7249C81.8508 79.1304 79.4534 76.675 74.6125 76.675C69.7716 76.675 67.3741 79.1304 64.8384 81.7249C62.2105 84.3657 59.5364 87.1454 54.1423 87.1454C48.7481 87.1454 46.0279 84.412 43.4461 81.7249C41.0026 79.2694 38.7435 76.9066 34.3175 76.7213V102.341H34.1331Z" fill="white"/>
</g>
<path d="M83.8333 181.194C83.0495 181.194 82.3579 181.055 81.7586 180.777C81.2053 180.499 80.6521 180.082 80.191 179.526L81.4819 178.229C81.8047 178.599 82.1274 178.924 82.4962 179.155C82.8651 179.387 83.3722 179.48 83.9255 179.48C84.4326 179.48 84.8476 179.387 85.1242 179.202C85.4008 179.016 85.5852 178.738 85.5852 178.368C85.5852 178.043 85.493 177.812 85.3086 177.627C85.1242 177.441 84.8937 177.256 84.617 177.163C84.3404 177.024 84.0177 176.932 83.6949 176.793C83.3722 176.7 83.0034 176.561 82.6807 176.422C82.3579 176.283 82.0352 176.098 81.7586 175.866C81.482 175.634 81.2514 175.356 81.067 175.032C80.8826 174.708 80.8365 174.291 80.8365 173.735C80.8365 173.133 80.9748 172.623 81.2975 172.16C81.6203 171.696 81.9891 171.418 82.4962 171.187C83.0034 170.955 83.6027 170.862 84.2482 170.862C84.9398 170.862 85.5391 171.001 86.0924 171.233C86.6456 171.511 87.1067 171.835 87.4294 172.252L86.1385 173.55C85.8618 173.225 85.5391 172.994 85.2164 172.855C84.8937 172.716 84.5709 172.623 84.156 172.623C83.6949 172.623 83.3722 172.716 83.0956 172.901C82.819 173.086 82.7268 173.318 82.7268 173.642C82.7268 173.92 82.819 174.152 83.0034 174.291C83.1878 174.476 83.4183 174.615 83.6949 174.754C83.9716 174.893 84.2943 174.986 84.617 175.125C84.9398 175.217 85.3086 175.356 85.6313 175.495C85.954 175.634 86.2768 175.82 86.5534 176.051C86.83 176.283 87.0605 176.561 87.245 176.932C87.4294 177.302 87.5216 177.719 87.5216 178.275C87.5216 179.202 87.1989 179.943 86.5534 180.499C85.8618 180.916 84.9859 181.194 83.8333 181.194Z" fill="white"/>
<path d="M90.5183 181.194C89.919 181.194 89.3657 181.055 88.9047 180.823C88.4436 180.592 88.0748 180.267 87.7521 179.85L89.0891 178.599C89.2274 178.831 89.4579 179.016 89.6884 179.155C89.919 179.294 90.1956 179.341 90.4722 179.341C90.7949 179.341 91.0255 179.294 91.256 179.155C91.4865 179.016 91.6248 178.831 91.7631 178.599C91.9014 178.368 91.9476 178.09 91.9476 177.719V170.955H93.8839V177.626C93.8839 178.321 93.7456 178.97 93.469 179.48C93.1924 179.989 92.7774 180.406 92.2703 180.731C91.8092 181.055 91.2099 181.194 90.5183 181.194Z" fill="white"/>
<path d="M104.442 170.816L105.687 172.067L96.5119 181.287L95.2671 180.036L104.442 170.816ZM100.523 181.194C99.7853 181.194 99.0937 181.055 98.4483 180.777C97.8028 180.499 97.2496 180.128 96.7885 179.665C96.3275 179.202 95.9586 178.646 95.682 177.997C95.4054 177.349 95.2671 176.7 95.2671 175.959C95.2671 175.217 95.4054 174.569 95.682 173.92C95.9586 173.272 96.3275 172.762 96.7885 172.252C97.2496 171.789 97.8028 171.418 98.4483 171.14C99.0937 170.862 99.7392 170.77 100.477 170.77C101.215 170.77 101.906 170.909 102.505 171.14C103.151 171.418 103.658 171.743 104.165 172.252C104.626 172.716 104.995 173.272 105.272 173.92C105.548 174.569 105.641 175.217 105.641 175.959C105.641 176.7 105.502 177.349 105.272 177.997C104.995 178.646 104.626 179.155 104.165 179.665C103.704 180.128 103.151 180.499 102.552 180.777C101.906 181.055 101.215 181.194 100.523 181.194ZM100.477 179.387C101.122 179.387 101.676 179.248 102.137 178.97C102.598 178.692 102.966 178.275 103.243 177.766C103.52 177.256 103.658 176.654 103.658 176.005C103.658 175.495 103.566 175.078 103.428 174.661C103.289 174.244 103.059 173.92 102.782 173.596C102.505 173.318 102.137 173.086 101.768 172.901C101.353 172.762 100.938 172.669 100.477 172.669C99.8314 172.669 99.2781 172.808 98.8171 173.086C98.3561 173.364 97.9872 173.781 97.7106 174.244C97.434 174.754 97.2957 175.356 97.2957 176.005C97.2957 176.515 97.3879 176.978 97.5262 177.395C97.6645 177.812 97.895 178.182 98.1717 178.46C98.4483 178.738 98.771 178.97 99.1859 179.155C99.5548 179.341 100.016 179.387 100.477 179.387Z" fill="white"/>
<path d="M107.162 181.055V171.001H109.098V181.055H107.162ZM108.591 181.055V179.48H111.219C111.68 179.48 112.049 179.341 112.28 179.063C112.556 178.785 112.648 178.46 112.648 178.043C112.648 177.766 112.602 177.534 112.464 177.302C112.372 177.071 112.187 176.932 111.957 176.793C111.726 176.654 111.45 176.607 111.127 176.607H108.545V175.032H110.896C111.311 175.032 111.634 174.939 111.865 174.754C112.095 174.569 112.233 174.244 112.233 173.874C112.233 173.457 112.095 173.179 111.865 172.947C111.634 172.762 111.311 172.669 110.943 172.669H108.545V171.094H111.173C111.819 171.094 112.372 171.233 112.833 171.465C113.294 171.696 113.617 172.021 113.847 172.438C114.078 172.855 114.216 173.272 114.216 173.735C114.216 174.291 114.031 174.8 113.709 175.217C113.386 175.634 112.833 175.959 112.187 176.144L112.28 175.495C113.017 175.727 113.617 176.051 114.031 176.515C114.446 176.978 114.631 177.58 114.631 178.229C114.631 178.785 114.493 179.248 114.216 179.665C113.939 180.082 113.57 180.453 113.063 180.684C112.556 180.962 111.957 181.055 111.265 181.055H108.591Z" fill="white"/>
<path d="M116.152 181.055V171.001H118.089V181.055H116.152ZM117.581 172.716V171.001H123.022V172.716H117.581ZM117.581 176.746V175.078H122.607V176.746H117.581ZM117.581 181.055V179.341H123.114V181.055H117.581Z" fill="white"/>
<path d="M124.682 181.055V171.001H126.065L130.122 177.534H129.338L133.395 171.001H134.778V181.055H132.842V174.337L133.211 174.43L130.398 178.97H129.061L126.295 174.43L126.664 174.337V181.055H124.682Z" fill="white"/>
<path d="M136.023 181.055L140.08 171.001H141.694L145.705 181.055H143.63L140.541 172.808H141.233L138.098 181.055H136.023ZM138.19 179.202V177.58H143.538V179.202H138.19Z" fill="white"/>
<path d="M146.812 181.055V171.001H148.149L148.748 172.947V181.009H146.812V181.055ZM153.727 181.055L147.78 173.364L148.149 171.001L154.096 178.692L153.727 181.055ZM153.727 181.055L153.174 179.155V171.001H155.11V181.055H153.727Z" fill="white"/>
<path d="M157.139 181.055V171.001H158.476L159.075 172.947V181.009H157.139V181.055ZM164.054 181.055L158.107 173.364L158.476 171.001L164.423 178.692L164.054 181.055ZM164.054 181.055L163.501 179.155V171.001H165.438V181.055H164.054Z" fill="white"/>
<path d="M167.466 181.055V171.001H169.403V181.055H167.466Z" fill="white"/>
<path d="M171.477 181.055V171.001H172.814L173.414 172.947V181.009H171.477V181.055ZM178.347 181.055L172.399 173.364L172.768 171.001L178.716 178.692L178.347 181.055ZM178.347 181.055L177.793 179.155V171.001H179.73V181.055H178.347Z" fill="white"/>
<path d="M186.415 181.194C185.723 181.194 185.032 181.055 184.432 180.777C183.833 180.499 183.28 180.128 182.819 179.665C182.358 179.202 181.989 178.646 181.712 177.997C181.436 177.349 181.297 176.7 181.297 175.959C181.297 175.217 181.436 174.569 181.712 173.92C181.989 173.318 182.358 172.762 182.819 172.299C183.28 171.835 183.833 171.465 184.479 171.187C185.124 170.909 185.816 170.816 186.553 170.816C187.383 170.816 188.121 170.955 188.812 171.279C189.504 171.604 190.057 172.021 190.518 172.577L189.181 173.92C188.858 173.503 188.49 173.179 188.029 172.947C187.568 172.716 187.06 172.623 186.507 172.623C185.862 172.623 185.308 172.762 184.801 173.04C184.294 173.318 183.925 173.735 183.649 174.198C183.372 174.708 183.234 175.264 183.234 175.959C183.234 176.654 183.372 177.21 183.649 177.719C183.925 178.229 184.294 178.599 184.755 178.877C185.216 179.155 185.769 179.294 186.323 179.294C186.968 179.294 187.475 179.202 187.936 178.97C188.397 178.738 188.72 178.414 188.951 177.951C189.181 177.488 189.319 176.932 189.319 176.283L190.564 177.163L186.184 177.117V175.403H191.302V175.681C191.302 176.885 191.071 177.904 190.657 178.692C190.242 179.48 189.642 180.128 188.905 180.499C188.213 181.009 187.337 181.194 186.415 181.194Z" fill="white"/>
<path d="M73.967 147.235C73.967 147.466 74.1053 147.605 74.428 147.744C74.7508 147.883 75.0735 147.929 75.4423 147.929V149.134H64.239V147.929C64.5618 147.929 64.9306 147.883 65.2533 147.744C65.576 147.605 65.7144 147.466 65.7144 147.235V110.356L46.95 151.589L28.2317 110.217V147.235C28.2317 147.466 28.37 147.605 28.6928 147.744C29.0155 147.883 29.3382 147.929 29.707 147.929V149.134H18.4576V147.929C18.7804 147.929 19.1492 147.883 19.4719 147.744C19.7947 147.605 19.933 147.466 19.933 147.235V102.851C19.933 102.619 19.7947 102.48 19.4719 102.341C19.1492 102.202 18.8265 102.156 18.5499 102.156V100.952H35.0551V102.156C34.548 102.156 34.2252 102.295 34.0408 102.527C33.9025 102.758 33.9025 103.036 33.9947 103.314L46.9961 133.706L60.1819 103.314C60.2741 103.036 60.1358 102.805 59.813 102.527C59.4903 102.249 59.0293 102.156 58.5221 102.156V100.952H75.3501V102.156C75.0735 102.156 74.7508 102.202 74.428 102.341C74.1053 102.48 73.967 102.619 73.967 102.851V147.235Z" fill="white"/>
<path d="M116.198 120.78C115.922 120.78 115.599 120.827 115.276 120.966C114.954 121.105 114.815 121.244 114.815 121.475V147.235C114.815 147.466 114.954 147.605 115.276 147.744C115.599 147.883 115.922 147.929 116.198 147.929V149.134H106.701V145.613C104.027 148.532 100.615 149.968 96.5119 149.968C93.3768 149.968 90.6566 149.319 88.3053 148.068C85.954 146.818 84.1099 145.011 82.8189 142.648C81.528 140.285 80.8826 137.552 80.8826 134.401C80.8826 131.344 81.5741 128.656 83.0495 126.247C84.4787 123.885 86.369 122.031 88.7664 120.734C91.1638 119.437 93.7456 118.788 96.558 118.788C100.661 118.788 104.027 120.364 106.747 123.56V119.53H116.244V120.78H116.198ZM102.229 141.953C103.612 141.165 104.672 140.1 105.456 138.803C106.24 137.505 106.609 136.069 106.609 134.587C106.609 131.992 105.779 129.907 104.073 128.24C102.367 126.572 100.2 125.738 97.5262 125.738C94.9443 125.738 92.7774 126.572 91.0716 128.193C89.3657 129.815 88.5358 131.9 88.5358 134.448C88.5358 137.088 89.4118 139.22 91.1177 140.841C92.8696 142.416 94.9904 143.204 97.4801 143.204C99.2781 143.158 100.846 142.787 102.229 141.953Z" fill="white"/>
<path d="M141.832 117.63V128.008H140.634C140.634 127.73 140.587 127.359 140.449 126.989C140.311 126.618 140.173 126.386 139.942 126.34H139.481C138.144 126.34 136.807 126.711 135.47 127.452C134.133 128.193 133.026 129.212 132.15 130.417C131.274 131.622 130.859 132.919 130.859 134.309V147.235C130.859 147.466 130.998 147.605 131.321 147.744C131.643 147.883 131.966 147.929 132.243 147.929V149.134H121.5V147.929C121.777 147.929 122.1 147.883 122.422 147.744C122.745 147.605 122.883 147.466 122.883 147.235V121.475C122.883 121.244 122.745 121.105 122.422 120.966C122.1 120.827 121.777 120.78 121.5 120.78V119.53H130.859V122.309C132.012 121.244 133.395 120.364 135.009 119.715C136.623 119.066 138.236 118.742 139.896 118.742H139.942H139.988C140.219 118.742 140.357 118.603 140.449 118.371C140.541 118.093 140.587 117.862 140.587 117.584H141.832V117.63Z" fill="white"/>
<path d="M147.549 120.966C147.226 120.827 146.904 120.78 146.627 120.78V119.53H157.646V120.734C157.369 120.734 157.047 120.78 156.724 120.919C156.401 121.058 156.263 121.197 156.263 121.429V147.188C156.263 147.42 156.401 147.559 156.724 147.698C157.047 147.837 157.369 147.883 157.646 147.883V149.088H146.627V147.883C146.904 147.883 147.226 147.837 147.549 147.698C147.872 147.559 148.01 147.42 148.01 147.188V121.429C148.056 121.244 147.872 121.105 147.549 120.966ZM148.702 112.719C147.734 111.793 147.273 110.588 147.273 109.198C147.273 107.855 147.734 106.743 148.702 105.77C149.67 104.797 150.823 104.334 152.206 104.334C153.589 104.334 154.741 104.797 155.663 105.77C156.586 106.743 157.093 107.901 157.093 109.198C157.093 110.634 156.632 111.793 155.663 112.719C154.741 113.646 153.589 114.155 152.206 114.155C150.823 114.155 149.67 113.692 148.702 112.719Z" fill="white"/>
<path d="M181.574 118.279V128.054H180.375C180.375 127.776 180.329 127.452 180.191 127.174C180.053 126.896 179.914 126.757 179.684 126.757H175.534V147.235C175.534 147.466 175.673 147.605 175.995 147.744C176.272 147.883 176.595 147.929 176.871 147.929V149.134H166.452V147.929C166.728 147.929 167.051 147.883 167.328 147.744C167.604 147.605 167.789 147.466 167.789 147.235V126.757H164.7C164.469 126.757 164.331 126.896 164.193 127.174C164.054 127.452 164.008 127.73 164.008 128.054H162.81V118.279H164.008C164.008 118.557 164.054 118.881 164.193 119.159C164.331 119.437 164.469 119.576 164.7 119.576H167.789V112.071C167.789 111.839 167.651 111.7 167.328 111.561C167.005 111.422 166.728 111.376 166.452 111.376V110.171H176.871V111.376C176.595 111.376 176.272 111.422 175.995 111.561C175.719 111.7 175.534 111.839 175.534 112.071V119.53H179.684C179.914 119.53 180.053 119.391 180.191 119.113C180.329 118.835 180.375 118.557 180.375 118.232H181.574V118.279Z" fill="white"/>
<path d="M187.66 120.966C187.337 120.827 187.014 120.78 186.738 120.78V119.53H197.71V120.734C197.434 120.734 197.111 120.78 196.788 120.919C196.466 121.058 196.327 121.197 196.327 121.429V147.188C196.327 147.42 196.466 147.559 196.788 147.698C197.111 147.837 197.434 147.883 197.71 147.883V149.088H186.692V147.883C186.968 147.883 187.291 147.837 187.614 147.698C187.936 147.559 188.075 147.42 188.075 147.188V121.429C188.121 121.244 187.982 121.105 187.66 120.966ZM188.812 112.719C187.844 111.793 187.383 110.588 187.383 109.198C187.383 107.855 187.844 106.743 188.812 105.77C189.781 104.797 190.933 104.334 192.316 104.334C193.699 104.334 194.852 104.797 195.774 105.77C196.696 106.743 197.203 107.901 197.203 109.198C197.203 110.634 196.742 111.793 195.774 112.719C194.852 113.646 193.699 114.155 192.316 114.155C190.933 114.155 189.734 113.692 188.812 112.719Z" fill="white"/>
<path d="M252.067 147.234C252.067 147.466 252.206 147.605 252.528 147.744C252.851 147.883 253.174 147.929 253.543 147.929V149.134H242.293V147.929C242.616 147.929 242.985 147.883 243.307 147.744C243.63 147.605 243.769 147.466 243.769 147.234V133.845C243.769 128.517 242.017 125.877 238.513 125.877C236.807 125.877 235.47 126.572 234.548 128.008C233.626 129.444 233.118 131.529 233.118 134.355V147.234C233.118 147.466 233.257 147.605 233.579 147.744C233.902 147.883 234.225 147.929 234.594 147.929V149.134H223.39V147.929C223.713 147.929 224.082 147.883 224.405 147.744C224.727 147.605 224.866 147.466 224.866 147.234V133.845C224.866 131.483 224.497 129.583 223.759 128.101C223.022 126.618 221.685 125.877 219.702 125.877C218.181 125.877 216.936 126.433 216.014 127.591C215.092 128.749 214.538 130.417 214.4 132.687V147.234C214.4 147.466 214.585 147.605 214.907 147.744C215.23 147.883 215.553 147.929 215.876 147.929V149.134H204.488V147.929C204.764 147.929 205.087 147.883 205.456 147.744C205.779 147.605 205.963 147.466 205.963 147.234V121.475C205.963 121.244 205.825 121.105 205.502 120.966C205.179 120.827 204.857 120.78 204.58 120.78V119.53H214.446V121.29C216.152 119.715 218.319 118.927 220.993 118.927C223.39 118.927 225.465 119.391 227.171 120.317C228.923 121.244 230.26 122.495 231.228 124.163C232.012 122.587 233.165 121.29 234.778 120.364C236.392 119.437 238.19 118.927 240.172 118.927C244.183 118.927 247.18 120.132 249.117 122.541C251.099 124.95 252.067 128.054 252.067 131.853V147.234Z" fill="white"/>
</svg>
